# xmcd
#
# Track frame offsets:
#	150
#	11708
#	23185
#	34377
#	46105
#	54357
#	66707
#	78613
#	91235
#	104375
#	116912
#	126306
#	137576
#	148671
#	159987
#	171717
#
# Disc length: 2408 seconds
#
# Revision: 0
# Processed by: cddbd v1.5.1PL2 Copyright (c) Steve Scherf et al.
# Submitted via: dBpowerAMP V4.0
#
DISCID=e9096610
DTITLE=Reno And Smiley - 16 Greatest Gospel Hits
DYEAR=1900
DGENRE=
TTITLE0=I'm Using My Bible as a Roadmap
TTITLE1=He Will Set Your Friends on Fire
TTITLE2=There's a Highway to Heaven
TTITLE3=How I Miss My Darling Mother
TTITLE4=River of Jordan
TTITLE5=Tree of Life
TTITLE6=My Mother's Bible
TTITLE7=The Last Mile
TTITLE8=Someone Will Love Me in Heaven
TTITLE9=The New Jerusalem
TTITLE10=Echoes from the Burning Bush
TTITLE11=The Lord's Last Supper
TTITLE12=I'm Building a Mansion in Heaven
TTITLE13=He's Coming Back to Earth Again
TTITLE14=Jesus is Waiting
TTITLE15=Since I've Used my Bible for a Roadmap
EXTD=Reno and Smiley - Gospel
EXTT0=
EXTT1=
EXTT2=
EXTT3=
EXTT4=
EXTT5=
EXTT6=
EXTT7=
EXTT8=
EXTT9=
EXTT10=
EXTT11=
EXTT12=
EXTT13=
EXTT14=
EXTT15=
PLAYORDER=
